<svg width="200" height="30" viewBox="0 0 235 42" fill="none" xmlns="http://www.w3.org/2000/svg">
<rect width="235" height="42" fill="white"/>
<path d="M197 9L199.694 17.2918H208.413L201.359 22.4164L204.053 30.7082L197 25.5836L189.947 30.7082L192.641 22.4164L185.587 17.2918H194.306L197 9Z" fill="#EEA230"/>
<path d="M157 9L159.694 17.2918H168.413L161.359 22.4164L164.053 30.7082L157 25.5836L149.947 30.7082L152.641 22.4164L145.587 17.2918H154.306L157 9Z" fill="#EEA230"/>
<path d="M117 9L119.694 17.2918H128.413L121.359 22.4164L124.053 30.7082L117 25.5836L109.947 30.7082L112.641 22.4164L105.587 17.2918H114.306L117 9Z" fill="#EEA230"/>
<path d="M77 9L79.6942 17.2918H88.4127L81.3593 22.4164L84.0534 30.7082L77 25.5836L69.9466 30.7082L72.6407 22.4164L65.5873 17.2918H74.3058L77 9Z" fill="#EEA230"/>
<path d="M35 9L37.6942 17.2918H46.4127L39.3593 22.4164L42.0534 30.7082L35 25.5836L27.9466 30.7082L30.6407 22.4164L23.5873 17.2918H32.3058L35 9Z" fill="#EEA230"/>
</svg>
